# xmcd
# 
# Track frame offsets:
#     150
#     5965
#     15300
#     24420
#     28895
#     36525
#     57040
#     66990
#     79170
#     94012
#     104877
#     115387
#     125035
#     133757
#     152532
#     158252
#     167140
# 
# Disc length: 2307
# 
# Revision: 2
# Processed by: cddbd v1.5.2PL0 Copyright (c) Steve Scherf et al.
# Submitted via: fre:ac v1.0.27
# 
DISCID=e3090111
DTITLE=大野雄二 - NHK「小さな旅」〜風景のまなざし
DYEAR=1999
DGENRE=Soundtrack
TTITLE0=小さな旅 ～オープニングテーマ～
TTITLE1=青春の峠道
TTITLE2=風の調べ
TTITLE3=故郷の母の笑顔
TTITLE4=遠きにありて[1]
TTITLE5=愛しき山河
TTITLE6=小駅に佇み
TTITLE7=風景のまなざし
TTITLE8=小さな旅 ～インターミッション
TTITLE9=友よ 山よ
TTITLE10=忘れ得ぬ街
TTITLE11=白木蓮
TTITLE12=父の足音が聞こえる
TTITLE13=子守り歌のように
TTITLE14=遠きにありて[2]
TTITLE15=ふたりの車窓
TTITLE16=小さな旅 ～エンディングテーマ
EXTD=
EXTT0=
EXTT1=
EXTT2=
EXTT3=
EXTT4=
EXTT5=
EXTT6=
EXTT7=
EXTT8=
EXTT9=
EXTT10=
EXTT11=
EXTT12=
EXTT13=
EXTT14=
EXTT15=
EXTT16=
PLAYORDER=
